<?xml version="1.0" encoding="UTF-8"?>
<svg id="Lager_2" data-name="Lager 2" xmlns="http://www.w3.org/2000/svg" viewBox="0 0 231.69 156.16">
  <defs>
    <style>
      .cls-1 {
        fill: #1d1d1b;
        stroke: #fff;
        stroke-miterlimit: 10;
      }

      .cls-2 {
        fill: #4fa3db;
      }

      .cls-2, .cls-3 {
        stroke-width: 0px;
      }

      .cls-3 {
        fill: #00679a;
      }
    </style>
  </defs>
  <g id="Lager_1-2" data-name="Lager 1">
    <g>
      <g>
        <g>
          <path class="cls-2" d="M159.41,96.72c-3.62-2.76-6.99-3.77-10.68-8.4-3.91-4.9-5.4-10.37-6.04-14.23-.6-2.03-1.65-4.87-3.53-7.92-.85-1.37-4.07-6.35-10.31-10.31-2.63-1.67-7.58-4.72-14.54-4.89-4.32-.11-7.55.95-9.15,1.48-5.37,1.79-10.08,5.1-13.65,9.46-2.61,3.18-4.61,6.91-5.81,10.99-1.23,4.17-.65,5.85-1.31,9.09-.77,3.81-3.02,8.93-9.68,14.36-.84.53-16.85,10.92-16.54,28.3.31,17.03,16.36,28.61,29.9,31.02,12.09,2.15,21.86-3.07,25.36-5.17,2.11-.76,5.27-1.65,9.14-1.83,8.37-.38,12.65,3.03,17.31,3.82,12.18,2.08,30.92-11.46,32.4-27.84.97-10.63-5.35-22.17-12.89-27.91ZM114.67,112.99c.17-.44.36-.88.55-1.31.19.42.37.85.53,1.28-.36.01-.72.03-1.08.03Z"/>
          <ellipse class="cls-2" cx="65.55" cy="64.04" rx="15.88" ry="23.26" transform="translate(-9.72 11.76) rotate(-9.55)"/>
          <ellipse class="cls-2" cx="92.77" cy="26.25" rx="15.87" ry="23.29"/>
          <ellipse class="cls-2" cx="131.07" cy="23.29" rx="15.87" ry="23.29"/>
          <ellipse class="cls-2" cx="166.4" cy="57.11" rx="15.87" ry="23.29"/>
          <ellipse class="cls-2" cx="112.96" cy="108.27" rx="10.16" ry="8.76"/>
        </g>
        <g>
          <path class="cls-3" d="M106.19,128.5c-1.23-.41-2.22-.4-3.66-1.28-1.52-.94-2.44-2.22-2.99-3.16-.36-.47-.91-1.12-1.71-1.74-.36-.28-1.7-1.3-3.74-1.8-.86-.21-2.47-.59-4.34-.07-1.16.33-1.92.86-2.29,1.13-1.25.9-2.18,2.14-2.71,3.55-.38,1.03-.55,2.15-.48,3.3.08,1.17.4,1.55.54,2.44.17,1.04.06,2.54-1.18,4.48-.17.21-3.42,4.18-1.64,8.62,1.74,4.35,7.13,6,10.97,5.51,3.42-.44,5.51-2.58,6.24-3.41.49-.37,1.24-.86,2.25-1.22,2.19-.78,3.66-.26,4.97-.44,3.44-.47,7.1-5.47,5.91-9.8-.78-2.81-3.58-5.25-6.14-6.11ZM95.88,136.35c0-.13,0-.26.02-.38.09.09.18.19.27.29-.09.03-.19.07-.29.1Z"/>
          <ellipse class="cls-3" cx="78.06" cy="127.81" rx="4.36" ry="6.47" transform="translate(-57.44 64.02) rotate(-33.37)"/>
          <path class="cls-3" d="M85.83,114.58c1.25,3.3.38,6.56-1.95,7.28s-5.23-1.38-6.48-4.68-.38-6.56,1.95-7.28c2.33-.72,5.23,1.38,6.48,4.68Z"/>
          <path class="cls-3" d="M95.73,110.68c1.25,3.3.38,6.56-1.95,7.28s-5.23-1.38-6.48-4.68-.38-6.56,1.95-7.28,5.23,1.38,6.48,4.68Z"/>
          <path class="cls-3" d="M108.41,116.46c1.25,3.3.38,6.56-1.95,7.28s-5.23-1.38-6.48-4.68-.38-6.56,1.95-7.28,5.23,1.38,6.48,4.68Z"/>
          <path class="cls-3" d="M97.66,134.44c.47,1.24-.36,2.62-1.85,3.08s-3.08-.17-3.55-1.42.36-2.62,1.85-3.08,3.08.17,3.55,1.42Z"/>
        </g>
      </g>
      <g>
        <path class="cls-1" d="M42.76,61.56c.1-1.39.2-2.72.32-4,.12-1.27.18-2.15.18-2.63,0-2.64-1.54-3.96-4.61-3.96-.53,0-1.2.01-2.02.04-.82.02-1.63.08-2.45.18-2.16.14-3.65.22-4.46.22-.96,0-1.82.01-2.59.04-.77.02-1.44.04-2.02.04-.67,0-1.25.01-1.73.04-.48.02-.84.04-1.08.04-1.3,0-2.6-.02-3.92-.07-1.32-.05-2.63-.07-3.92-.07-1.25-.05-2.29-.08-3.13-.11-.84-.02-1.48-.04-1.91-.04h-.58c-1.15-.1-2.12-.16-2.92-.18-.79-.02-1.33-.04-1.62-.04-2.54,0-3.82,1.3-3.82,3.89.1.43.12.65.07.65s-.05.14,0,.43l.22,2.09c.05.67.08,1.3.11,1.87.02.58.04,1.13.04,1.66,0,.62-.07,2.02-.22,4.18,0,.24-.01.47-.04.68-.02.22-.04.4-.04.54-.05.34-.07.7-.07,1.08v.86c0,2.74,1.25,4.1,3.74,4.1s3.89-1.78,3.89-5.33v-1.01c0-.33-.02-.62-.07-.86l-.29-2.45c-.05-.24-.07-.54-.07-.9v-1.4c0-2.59,1.27-3.89,3.82-3.89h2.09c2.59,0,3.89,1.32,3.89,3.96l.07,11.3v5.83l-.07,6.12v4.82c0,2.78-.77,4.18-2.3,4.18-.1,0-.29-.01-.58-.04-.29-.02-.6-.06-.94-.11-.29,0-.68-.02-1.19-.07-.5-.05-.71-.07-.61-.07-2.26,0-3.38,1.06-3.38,3.17,0,2.26,1.42,3.38,4.25,3.38h.65c.1-.05.24-.07.43-.07l3.46-.5c.67-.1,1.39-.17,2.16-.22.77-.05,1.56-.07,2.38-.07.72,0,1.42.02,2.09.07.67.05,1.34.12,2.02.22l3.46.5c.19,0,.36.02.5.07h.58c2.83,0,4.25-1.13,4.25-3.38,0-.82-.34-1.55-1.01-2.2-.67-.65-1.46-.97-2.38-.97.1,0-.1.03-.58.07-.48.05-.89.07-1.22.07-.29.05-.59.08-.9.11-.31.03-.52.04-.61.04-1.58,0-2.38-1.39-2.38-4.18l.07-23.47.22-4.82c.1-1.25.43-2.18,1.01-2.81.58-.62,1.49-.94,2.74-.94h1.94c2.83,0,4.25,1.27,4.25,3.82,0,.38-.01.89-.04,1.51-.02.62-.06,1.34-.11,2.16-.14,1.68-.22,2.93-.22,3.74,0,2.93,1.25,4.39,3.74,4.39s3.89-1.25,3.89-3.74c0-.24-.02-.67-.07-1.3-.05-.62-.12-1.42-.22-2.38-.1-.72-.14-1.36-.14-1.91v-1.98Z"/>
        <path class="cls-1" d="M81.64,84.31c-2.16,0-3.24,1.03-3.24,3.1v3.38c0,2.26-.41,3.38-1.22,3.38-.53,0-.91-.53-1.15-1.58-.05-.24-.08-.68-.11-1.33-.02-.65-.04-1.45-.04-2.41v-13.75c0-8.59-4.54-12.89-13.61-12.89-3.89,0-7.18.98-9.86,2.95-2.83,1.97-4.25,4.39-4.25,7.27,0,1.49.5,2.73,1.51,3.71,1.01.98,2.28,1.48,3.82,1.48,1.34,0,2.46-.38,3.35-1.15.89-.77,1.33-1.75,1.33-2.95s-.5-2.23-1.51-3.1h-.07s.17-.24.5-.58v.07c1.54-1.06,3.24-1.58,5.11-1.58,1.97,0,3.49.46,4.57,1.37,1.08.91,1.62,2.14,1.62,3.67s-.41,2.66-1.22,3.24c-1.01.62-3.34,1.13-6.98,1.51-2.78.34-4.63.62-5.54.86-.96.24-2.09.72-3.38,1.44-1.68.96-3.01,2.22-4,3.78-.98,1.56-1.48,3.35-1.48,5.36,0,3.31,1.2,5.96,3.6,7.96,2.4,1.99,5.64,2.99,9.72,2.99,4.51,0,8.04-1.3,10.58-3.89,1.25,2.4,3.65,3.6,7.2,3.6,5.33,0,8.04-2.5,8.14-7.49l.07-3.89v-.36c0-2.78-1.15-4.18-3.46-4.18ZM68.18,85.75c-.05,2.59-.83,4.63-2.34,6.12-1.51,1.49-3.64,2.23-6.37,2.23-1.82,0-3.25-.42-4.28-1.26-1.03-.84-1.55-1.96-1.55-3.35,0-2.78,2.26-4.39,6.77-4.82,2.78-.24,4.82-.58,6.12-1.01.34-.1.64-.2.9-.32.26-.12.54-.23.83-.32l-.07,2.74Z"/>
        <path class="cls-1" d="M105.04,78.05c-.67-.1-1.33-.19-1.98-.29-.65-.1-1.31-.19-1.98-.29-1.49-.29-2.69-.78-3.6-1.48-.91-.7-1.37-1.62-1.37-2.77,0-1.34.6-2.45,1.8-3.31,1.2-.86,2.66-1.3,4.39-1.3s3.3.4,4.57,1.19c1.27.79,1.93,1.74,1.98,2.84l.07,2.3c.1,2.06,1.25,3.1,3.46,3.1s3.38-1.2,3.38-3.6c0-.33-.03-.71-.07-1.12-.05-.41-.12-.88-.22-1.4-.14-.86-.22-1.61-.22-2.23,0-.38.02-.79.07-1.22.05-.43.12-.86.22-1.3,0-.24.01-.49.04-.76.02-.26.04-.49.04-.68,0-.24.01-.41.04-.5.02-.1.04-.19.04-.29,0-2.11-1.13-3.17-3.38-3.17-1.68,0-2.74.67-3.17,2.02-1.83-1.06-4.06-1.58-6.7-1.58-2.11,0-4.03.29-5.76.86-1.73.58-3.22,1.37-4.46,2.38-1.25,1.01-2.22,2.23-2.92,3.67-.7,1.44-1.04,3.02-1.04,4.75,0,1.87.34,3.43,1.01,4.68.67,1.25,1.66,2.27,2.95,3.06,1.3.79,2.9,1.42,4.82,1.87,1.92.46,4.13.83,6.62,1.12,4.22.43,6.34,1.92,6.34,4.46,0,1.49-.61,2.7-1.84,3.64-1.22.94-2.77,1.4-4.64,1.4-2.83,0-5.12-.53-6.88-1.58-1.75-1.06-2.65-2.42-2.7-4.1-.05-1.92-.24-3.24-.58-3.96-.34-.82-1.27-1.22-2.81-1.22-2.26,0-3.38,1.1-3.38,3.31,0,.67.07,1.32.22,1.94.1.53.18,1.09.25,1.69.07.6.11,1.16.11,1.69,0,.67-.01,1.19-.04,1.55-.03.36-.06.71-.11,1.04-.05.34-.11.72-.18,1.15-.07.43-.16,1.01-.25,1.73,0,2.5,1.22,3.74,3.67,3.74,2.06,0,3.21-.91,3.46-2.74,2.59,1.44,5.47,2.16,8.64,2.16,4.22,0,7.73-1.06,10.51-3.17,2.83-2.35,4.25-5.28,4.25-8.78,0-5.86-4.22-9.36-12.67-10.51Z"/>
        <path class="cls-1" d="M140.47,78.05c-.67-.1-1.33-.19-1.98-.29-.65-.1-1.31-.19-1.98-.29-1.49-.29-2.69-.78-3.6-1.48-.91-.7-1.37-1.62-1.37-2.77,0-1.34.6-2.45,1.8-3.31,1.2-.86,2.66-1.3,4.39-1.3s3.3.4,4.57,1.19c1.27.79,1.93,1.74,1.98,2.84l.07,2.3c.1,2.06,1.25,3.1,3.46,3.1s3.38-1.2,3.38-3.6c0-.33-.03-.71-.07-1.12-.05-.41-.12-.88-.22-1.4-.14-.86-.22-1.61-.22-2.23,0-.38.02-.79.07-1.22.05-.43.12-.86.22-1.3,0-.1.01-.21.02-.32.46-2.88,1.34-10.07-1.35-10.21-2.34-.12-4.99,4-6.39,6.52-1.55-.63-3.34-.95-5.38-.95-1.63,0-3.15.18-4.55.52-1.4-2.58-4.31-7.36-6.02-5.74-1.76,1.66-1.29,7.21-.97,9.74-.63.72-1.18,1.51-1.6,2.39-.7,1.44-1.04,3.02-1.04,4.75,0,1.87.34,3.43,1.01,4.68.67,1.25,1.66,2.27,2.95,3.06,1.3.79,2.9,1.42,4.82,1.87,1.92.46,4.13.83,6.62,1.12,4.22.43,6.34,1.92,6.34,4.46,0,1.49-.61,2.7-1.84,3.64-1.22.94-2.77,1.4-4.64,1.4-2.83,0-5.12-.53-6.88-1.58-1.75-1.06-2.65-2.42-2.7-4.1-.05-1.92-.24-3.24-.58-3.96-.34-.82-1.27-1.22-2.81-1.22-2.26,0-3.38,1.1-3.38,3.31,0,.67.07,1.32.22,1.94.1.53.18,1.09.25,1.69.07.6.11,1.16.11,1.69,0,.67-.01,1.19-.04,1.55-.03.36-.06.71-.11,1.04-.05.34-.11.72-.18,1.15-.07.43-.16,1.01-.25,1.73,0,2.5,1.22,3.74,3.67,3.74,2.06,0,3.21-.91,3.46-2.74,2.59,1.44,5.47,2.16,8.64,2.16,4.22,0,7.73-1.06,10.51-3.17,2.83-2.35,4.25-5.28,4.25-8.78,0-5.86-4.22-9.36-12.67-10.51Z"/>
        <path class="cls-1" d="M196.77,55.49c-.98-1.93-6.03-1.9-6.91,22.75v12.56c0,2.26-.41,3.38-1.22,3.38-.53,0-.91-.53-1.15-1.58-.05-.24-.08-.68-.11-1.33-.03-.65-.04-1.45-.04-2.41v-13.75c0-8.59-4.54-12.89-13.61-12.89-3.89,0-7.18.98-9.86,2.95-2.83,1.97-4.25,4.39-4.25,7.27,0,1.49.5,2.73,1.51,3.71,1.01.98,2.28,1.48,3.82,1.48,1.34,0,2.46-.38,3.35-1.15.89-.77,1.33-1.75,1.33-2.95s-.5-2.23-1.51-3.1h-.07s.17-.24.5-.58v.07c1.54-1.06,3.24-1.58,5.11-1.58,1.97,0,3.49.46,4.57,1.37,1.08.91,1.62,2.14,1.62,3.67s-.41,2.66-1.22,3.24c-1.01.62-3.34,1.13-6.98,1.51-2.78.34-4.63.62-5.54.86-.96.24-2.09.72-3.38,1.44-1.68.96-3.01,2.22-4,3.78-.98,1.56-1.48,3.35-1.48,5.36,0,3.31,1.2,5.96,3.6,7.96,2.4,1.99,5.64,2.99,9.72,2.99,4.51,0,8.04-1.3,10.58-3.89,1.25,2.4,3.65,3.6,7.2,3.6,5.33,0,8.04-2.5,8.14-7.49l.07-3.89-.26-9.55c-.57-25.33,2.25-20.31.47-23.81ZM179.63,85.75c-.05,2.59-.83,4.63-2.34,6.12-1.51,1.49-3.64,2.23-6.37,2.23-1.83,0-3.25-.42-4.28-1.26-1.03-.84-1.55-1.96-1.55-3.35,0-2.78,2.26-4.39,6.77-4.82,2.78-.24,4.82-.58,6.12-1.01.34-.1.64-.2.9-.32.26-.12.54-.23.83-.32l-.07,2.74Z"/>
        <path class="cls-1" d="M230.32,68.47c-.58-1.3-1.39-2.41-2.45-3.35-1.06-.94-2.3-1.66-3.74-2.16-1.44-.5-3.05-.76-4.82-.76-3.27,0-6.07,1.03-8.42,3.1-.29-1.25-1.22-1.87-2.81-1.87-.53,0-1.03.05-1.51.14-.14,0-.25.01-.32.04-.07.02-.16.04-.25.04-.24.05-.44.07-.61.07h-.4c-.19,0-.47-.01-.83-.04-.36-.02-.73-.06-1.12-.11-.38-.05-.82-.08-1.3-.11-.48-.02-.77-.06-.86-.11-2.69,0-4.03,1.1-4.03,3.31s1.13,3.17,3.38,3.17c.62,0,1.22-.07,1.8-.22h-.14c.14,0,.41-.02.79-.07.38-.05.62-.07.72-.07.38.24.62,1.25.72,3.02l.22,15.48c0,.58-.02,1.15-.07,1.73-.05.58-.07,1.15-.07,1.73-.05,1.44-.29,2.16-.72,2.16h-.07c-.1,0-.17-.02-.22-.07h-.58l-.86-.22c-.24-.1-.44-.13-.61-.11-.17.03-.37.04-.61.04-2.5,0-3.74,1.01-3.74,3.02,0,2.26,1.32,3.38,3.96,3.38l3.89-.36c.53-.05,1.13-.08,1.8-.11.67-.02,1.46-.04,2.38-.04.58,0,1.56.07,2.95.22.72.1,1.36.17,1.91.22.55.05,1.02.07,1.4.07h.22c2.64,0,3.96-1.13,3.96-3.38,0-2.06-1.1-3.1-3.31-3.1-.48,0-1.03.1-1.66.29-.24.05-.48.08-.72.11-.24.02-.5.04-.79.04-.38,0-.7-1.06-.94-3.17-.05-.19-.07-.7-.07-1.51v-7.85c0-3.74.33-6.58,1.01-8.5,1.01-2.78,3.02-4.18,6.05-4.18,1.39,0,2.56.36,3.49,1.08.94.72,1.4,1.61,1.4,2.66v.36c-.08-.03-.13-.05-.17-.07.11.05.12.07.03.07-1.01,0-1.91.38-2.7,1.15-.79.77-1.19,1.63-1.19,2.59,0,1.2.47,2.21,1.4,3.02.94.82,2.1,1.22,3.49,1.22,2.02,0,3.62-.71,4.82-2.12,1.2-1.42,1.8-3.28,1.8-5.58,0-1.58-.29-3.02-.86-4.32Z"/>
        <path class="cls-1" d="M223.52,72.43s0,0,0,0c-.08-.03-.07-.03,0,0Z"/>
      </g>
    </g>
  </g>
</svg>