<svg width="87" height="87" viewBox="0 0 87 87" fill="none" xmlns="http://www.w3.org/2000/svg">
<path d="M11.0158 70.9078C20.925 65.3068 32.1175 62.3717 43.5 62.3889C55.3056 62.3889 66.3886 65.4819 75.9842 70.9078M57.6667 34.0556C57.6667 37.8128 56.1741 41.4161 53.5173 44.0729C50.8606 46.7297 47.2572 48.2222 43.5 48.2222C39.7428 48.2222 36.1394 46.7297 33.4827 44.0729C30.8259 41.4161 29.3333 37.8128 29.3333 34.0556C29.3333 30.2983 30.8259 26.695 33.4827 24.0382C36.1394 21.3814 39.7428 19.8889 43.5 19.8889C47.2572 19.8889 50.8606 21.3814 53.5173 24.0382C56.1741 26.695 57.6667 30.2983 57.6667 34.0556ZM86 43.5C86 49.0812 84.9007 54.6077 82.7649 59.764C80.6291 64.9204 77.4985 69.6055 73.552 73.552C69.6055 77.4985 64.9204 80.6291 59.764 82.7649C54.6077 84.9007 49.0812 86 43.5 86C37.9188 86 32.3923 84.9007 27.236 82.7649C22.0796 80.6291 17.3945 77.4985 13.448 73.552C9.50147 69.6055 6.37094 64.9204 4.23512 59.764C2.09929 54.6077 1 49.0812 1 43.5C1 32.2283 5.47767 21.4183 13.448 13.448C21.4183 5.47767 32.2283 1 43.5 1C54.7717 1 65.5817 5.47767 73.552 13.448C81.5223 21.4183 86 32.2283 86 43.5Z" stroke="black" stroke-width="2" stroke-linecap="round" stroke-linejoin="round"/>
</svg>
